<?xml version="1.0" encoding="utf-8"?>
<!-- Generator: Adobe Illustrator 19.2.1, SVG Export Plug-In . SVG Version: 6.00 Build 0)  -->
<svg version="1.1" id="Layer_1" xmlns="http://www.w3.org/2000/svg" xmlns:xlink="http://www.w3.org/1999/xlink" x="0px" y="0px"
	 viewBox="0 0 153.3 52.7" style="enable-background:new 0 0 153.3 52.7;" xml:space="preserve">
<style type="text/css">
	.st0{fill:#F15A29;}
	.st1{fill:#FFFFFF;}
</style>
<path class="st0" d="M128.6,46.6H24.8c-11.1,0-20.3-9.1-20.3-20.3v0c0-11.1,9.1-20.3,20.3-20.3h103.8c11.1,0,20.3,9.1,20.3,20.3v0
	C148.8,37.5,139.7,46.6,128.6,46.6z"/>
<g>
	<path class="st1" d="M35.8,29.1c0-0.5-0.1-0.8-0.3-1.1c-0.2-0.3-0.6-0.5-1.2-0.8c-1.2-0.4-2-0.9-2.6-1.4c-0.6-0.5-0.9-1.3-0.9-2.2
		c0-0.9,0.3-1.7,1-2.3s1.5-0.9,2.6-0.9c1.1,0,2,0.3,2.7,0.9s1,1.5,1,2.5l0,0h-2.1c0-0.6-0.1-1-0.4-1.3c-0.3-0.3-0.6-0.5-1.1-0.5
		c-0.4,0-0.8,0.1-1,0.4s-0.4,0.6-0.4,1c0,0.4,0.1,0.7,0.4,1s0.7,0.5,1.4,0.8c1.1,0.4,1.9,0.8,2.5,1.4c0.6,0.6,0.8,1.3,0.8,2.3
		c0,1-0.3,1.7-1,2.3c-0.7,0.6-1.5,0.8-2.6,0.8c-1.1,0-2-0.3-2.8-0.9s-1.1-1.5-1.1-2.7l0,0h2.1c0,0.7,0.1,1.2,0.4,1.5
		s0.7,0.5,1.3,0.5c0.5,0,0.8-0.1,1.1-0.4C35.6,29.8,35.8,29.5,35.8,29.1z"/>
	<path class="st1" d="M47.5,27.9c0,1.3-0.4,2.4-1.1,3.1c-0.8,0.8-1.8,1.1-3,1.1c-1.3,0-2.3-0.4-3-1.1s-1.1-1.8-1.1-3.1v-3.2
		c0-1.3,0.4-2.4,1.1-3.1c0.7-0.8,1.7-1.1,3-1.1c1.3,0,2.3,0.4,3,1.1s1.1,1.8,1.1,3.1V27.9z M45.3,24.7c0-0.8-0.2-1.5-0.5-1.9
		s-0.8-0.6-1.5-0.6c-0.6,0-1.1,0.2-1.4,0.6c-0.3,0.4-0.5,1-0.5,1.9v3.2c0,0.8,0.2,1.5,0.5,1.9c0.3,0.4,0.8,0.6,1.4,0.6
		s1.1-0.2,1.5-0.6c0.3-0.4,0.5-1.1,0.5-1.9V24.7z"/>
	<path class="st1" d="M56.5,28.5L56.5,28.5c0,1.3-0.3,2.2-0.9,2.8c-0.6,0.6-1.6,0.9-2.8,0.9c-1.2,0-2.2-0.4-2.9-1.1
		s-1.1-1.7-1.1-3.1v-3.4c0-1.3,0.3-2.3,1-3.1s1.6-1.1,2.8-1.1c1.2,0,2.2,0.3,2.9,0.9c0.7,0.6,1,1.5,1,2.7l0,0h-2.1
		c0-0.7-0.1-1.2-0.4-1.5s-0.7-0.4-1.3-0.4c-0.6,0-1,0.2-1.2,0.6c-0.3,0.4-0.4,1-0.4,1.8V28c0,0.8,0.1,1.4,0.4,1.8s0.7,0.6,1.3,0.6
		c0.5,0,0.9-0.1,1.2-0.4c0.2-0.3,0.4-0.8,0.4-1.5H56.5z"/>
	<path class="st1" d="M60.2,32H58V20.6h2.2V32z"/>
	<path class="st1" d="M67.2,29.6h-2.8L63.8,32h-2.3l3.2-11.4H67L70.2,32h-2.3L67.2,29.6z M64.9,27.8h1.9l-0.9-3.6h0L64.9,27.8z"/>
	<path class="st1" d="M73.3,30.3h4.2V32h-6.4V20.6h2.2V30.3z"/>
	<path class="st1" d="M84.7,32h-2.2V20.6h2.2V32z"/>
	<path class="st1" d="M91.6,29.1L91.6,29.1l2.2-8.4h2.9V32h-2.2v-7.2l0,0L92.3,32h-1.5l-2-7.1l0,0V32h-2.2V20.6h2.9L91.6,29.1z"/>
	<path class="st1" d="M103.5,29.6h-2.8L100,32h-2.3l3.2-11.4h2.3l3.2,11.4h-2.3L103.5,29.6z M101.1,27.8h1.9l-0.9-3.6h0L101.1,27.8z
		"/>
	<path class="st1" d="M114.9,30.5c-0.3,0.5-0.8,0.8-1.4,1.2c-0.6,0.3-1.4,0.5-2.4,0.5c-1.2,0-2.2-0.4-3-1.1s-1.1-1.7-1.1-3.1v-3.5
		c0-1.3,0.4-2.3,1.1-3s1.7-1.1,2.9-1.1c1.2,0,2.2,0.3,2.8,0.9s0.9,1.4,0.9,2.5l0,0h-2.1c0-0.6-0.1-1-0.4-1.3s-0.7-0.4-1.2-0.4
		c-0.6,0-1,0.2-1.3,0.6s-0.5,1-0.5,1.8v3.5c0,0.8,0.2,1.4,0.5,1.8s0.8,0.6,1.4,0.6c0.4,0,0.8-0.1,1-0.2s0.4-0.2,0.6-0.4v-2.3H111
		v-1.5h3.9V30.5z"/>
	<path class="st1" d="M122.2,27h-3.5v3.3h4.2V32h-6.4V20.6h6.4v1.7h-4.1v2.9h3.5V27z"/>
</g>
</svg>
