<?xml version="1.0" encoding="utf-8"?>
<!-- Generator: Adobe Illustrator 19.2.1, SVG Export Plug-In . SVG Version: 6.00 Build 0)  -->
<svg version="1.1" id="Layer_1" xmlns="http://www.w3.org/2000/svg" xmlns:xlink="http://www.w3.org/1999/xlink" x="0px" y="0px"
	 viewBox="0 0 153.3 52.7" style="enable-background:new 0 0 153.3 52.7;" xml:space="preserve">
<style type="text/css">
	.st0{fill:#F15A29;}
	.st1{fill:#FFFFFF;}
</style>
<g>
	<path class="st0" d="M128.6,46.6H24.8c-11.1,0-20.3-9.1-20.3-20.3v0c0-11.1,9.1-20.3,20.3-20.3h103.8c11.1,0,20.3,9.1,20.3,20.3v0
		C148.8,37.5,139.7,46.6,128.6,46.6z"/>
	<g>
		<path class="st1" d="M60.3,27.9L60.3,27.9l1.2-7.2h2.2L61.5,32h-2l-1.7-7h0l-1.7,7h-2l-2.2-11.4h2.3l1.2,7.2l0,0l1.6-7.2h1.7
			L60.3,27.9z"/>
		<path class="st1" d="M70.5,27H67v3.3h4.2V32h-6.4V20.6h6.4v1.7H67v2.9h3.5V27z"/>
		<path class="st1" d="M72.5,32V20.6h3.3c1.2,0,2.1,0.3,2.8,0.8c0.7,0.5,1,1.3,1,2.3c0,0.5-0.1,1-0.4,1.4s-0.6,0.7-1.1,0.9
			c0.6,0.1,1.1,0.4,1.4,0.9c0.3,0.5,0.5,1,0.5,1.7c0,1.1-0.3,1.9-0.9,2.5S77.5,32,76.4,32H72.5z M74.7,25.5h1.2
			c0.5,0,0.8-0.1,1.1-0.4s0.4-0.6,0.4-1.1c0-0.5-0.1-0.9-0.4-1.2c-0.3-0.3-0.7-0.4-1.2-0.4h-1.1V25.5z M74.7,27v3.3h1.6
			c0.5,0,0.8-0.1,1.1-0.4c0.2-0.3,0.4-0.7,0.4-1.2c0-0.5-0.1-1-0.3-1.3c-0.2-0.3-0.6-0.5-1-0.5h-0.1H74.7z"/>
		<path class="st1" d="M90,29.6h-2.8L86.6,32h-2.3l3.2-11.4h2.3L93,32h-2.3L90,29.6z M87.7,27.8h1.9l-0.9-3.6h0L87.7,27.8z"/>
		<path class="st1" d="M93.9,32V20.6h3.5c1.2,0,2.2,0.4,2.9,1.3c0.8,0.9,1.2,2,1.2,3.4v1.9c0,1.4-0.4,2.5-1.2,3.4
			c-0.8,0.9-1.8,1.3-2.9,1.3H93.9z M96.1,22.4v7.9h1.3c0.6,0,1-0.3,1.4-0.8c0.3-0.6,0.5-1.3,0.5-2.2v-1.9c0-0.9-0.2-1.6-0.5-2.2
			c-0.3-0.6-0.8-0.8-1.4-0.8H96.1z"/>
	</g>
</g>
</svg>
