<?xml version="1.0" encoding="utf-8"?>
<!-- Generator: Adobe Illustrator 19.2.1, SVG Export Plug-In . SVG Version: 6.00 Build 0)  -->
<svg version="1.1" id="Layer_1" xmlns="http://www.w3.org/2000/svg" xmlns:xlink="http://www.w3.org/1999/xlink" x="0px" y="0px"
	 viewBox="0 0 153.3 52.7" style="enable-background:new 0 0 153.3 52.7;" xml:space="preserve">
<style type="text/css">
	.st0{fill:#F15A29;}
	.st1{fill:#FFFFFF;}
</style>
<path class="st0" d="M128.6,46.6H24.8c-11.1,0-20.3-9.1-20.3-20.3v0c0-11.1,9.1-20.3,20.3-20.3h103.8c11.1,0,20.3,9.1,20.3,20.3v0
	C148.8,37.5,139.7,46.6,128.6,46.6z"/>
<g>
	<path class="st1" d="M48.3,27.9L48.3,27.9l1.2-7.2h2.2L49.5,32h-2l-1.7-7h0l-1.7,7h-2l-2.2-11.4h2.3l1.2,7.2l0,0l1.6-7.2h1.7
		L48.3,27.9z"/>
	<path class="st1" d="M58.5,27H55v3.3h4.2V32h-6.4V20.6h6.4v1.7H55v2.9h3.5V27z"/>
	<path class="st1" d="M60.6,32V20.6h3.3c1.2,0,2.1,0.3,2.8,0.8s1,1.3,1,2.3c0,0.5-0.1,1-0.4,1.4s-0.6,0.7-1.1,0.9
		c0.6,0.1,1.1,0.4,1.4,0.9s0.5,1,0.5,1.7c0,1.1-0.3,1.9-0.9,2.5S65.6,32,64.4,32H60.6z M62.8,25.5h1.2c0.5,0,0.8-0.1,1.1-0.4
		s0.4-0.6,0.4-1.1c0-0.5-0.1-0.9-0.4-1.2s-0.7-0.4-1.2-0.4h-1.1V25.5z M62.8,27v3.3h1.6c0.5,0,0.8-0.1,1.1-0.4s0.4-0.7,0.4-1.2
		c0-0.5-0.1-1-0.3-1.3s-0.6-0.5-1-0.5h-0.1H62.8z"/>
	<path class="st1" d="M75.4,32h-2.2V20.6h2.2V32z"/>
	<path class="st1" d="M82.2,29.1L82.2,29.1l2.2-8.4h2.9V32h-2.2v-7.2l0,0L83,32h-1.5l-2-7.1l0,0V32h-2.2V20.6h2.9L82.2,29.1z"/>
	<path class="st1" d="M94.1,29.6h-2.8L90.7,32h-2.3l3.2-11.4h2.3L97.1,32h-2.3L94.1,29.6z M91.7,27.8h1.9l-0.9-3.6h0L91.7,27.8z"/>
	<path class="st1" d="M105.5,30.5c-0.3,0.5-0.8,0.8-1.4,1.2c-0.6,0.3-1.4,0.5-2.4,0.5c-1.2,0-2.2-0.4-3-1.1s-1.1-1.7-1.1-3.1v-3.5
		c0-1.3,0.4-2.3,1.1-3s1.7-1.1,2.9-1.1c1.2,0,2.2,0.3,2.8,0.9s0.9,1.4,0.9,2.5l0,0h-2.1c0-0.6-0.1-1-0.4-1.3s-0.7-0.4-1.2-0.4
		c-0.6,0-1,0.2-1.3,0.6s-0.5,1-0.5,1.8v3.5c0,0.8,0.2,1.4,0.5,1.8s0.8,0.6,1.4,0.6c0.4,0,0.8-0.1,1-0.2s0.4-0.2,0.6-0.4v-2.3h-1.7
		v-1.5h3.9V30.5z"/>
	<path class="st1" d="M112.8,27h-3.5v3.3h4.2V32h-6.4V20.6h6.4v1.7h-4.1v2.9h3.5V27z"/>
</g>
</svg>
